<svg width="184" height="46" viewBox="0 0 184 46" fill="none" xmlns="http://www.w3.org/2000/svg">
<g clip-path="url(#clip0_413_3188)">
<path fill-rule="evenodd" clip-rule="evenodd" d="M94.9236 11.4194H90.3978V34.2253H94.9236V11.4194ZM68.9805 14.2122C69.7162 14.6965 70.3028 15.367 70.7312 16.1958C71.1689 17.0339 71.3737 18.0862 71.3644 19.3433C71.3644 20.5912 71.1596 21.6342 70.7591 22.4816C70.3587 23.3197 69.8093 23.9995 69.1015 24.5024C68.3938 25.0052 67.565 25.3591 66.5965 25.5733C65.628 25.7875 64.5851 25.8899 63.4583 25.8899H62.974L60.1245 21.9042H63.1603C63.5793 21.9042 63.9891 21.8577 64.3802 21.7832C64.7806 21.6994 65.1345 21.569 65.4418 21.3734C65.7491 21.1872 66.0005 20.9264 66.1961 20.5912C66.3917 20.2653 66.4848 19.8462 66.4848 19.3433C66.4848 18.7939 66.3637 18.3655 66.1123 18.0303C65.8515 17.7044 65.5349 17.4529 65.1438 17.2667C64.7527 17.0898 64.315 16.9687 63.8308 16.9221C63.3465 16.8756 62.8902 16.8476 62.4432 16.8476H60.0313V21.9135V25.8899V34.2151H55.3286V12.862H63.2627C64.3709 12.862 65.4139 12.9644 66.401 13.1693C67.3881 13.3741 68.2448 13.7187 68.9805 14.2122ZM82.6389 32.3795H82.6948V34.2233H86.8574V26.7735C86.8574 25.5535 86.7549 24.4733 86.5501 23.5328C86.3452 22.6015 85.9913 21.81 85.4792 21.1674C84.967 20.5249 84.2779 20.0406 83.4305 19.7054C82.583 19.3702 81.4842 19.2025 80.1618 19.2025C78.9512 19.2025 77.7872 19.3981 76.6604 19.7892C75.5336 20.171 74.5558 20.767 73.7084 21.5492L76.1203 24.0263C76.5952 23.4862 77.1446 23.0485 77.7592 22.7412C78.3739 22.4339 79.0537 22.2756 79.7986 22.2756C80.5902 22.2756 81.27 22.5084 81.838 22.9833C82.4061 23.4583 82.6948 24.1008 82.6948 24.9017C82.0615 24.9017 81.391 24.911 80.6554 24.9296C79.9197 24.9576 79.1933 25.0227 78.4577 25.1159C77.722 25.2183 77.0143 25.3673 76.3345 25.5815C75.6547 25.7864 75.04 26.0843 74.5092 26.4662C73.9784 26.848 73.5501 27.3229 73.2428 27.9096C72.9355 28.4962 72.7771 29.204 72.7771 30.0514C72.7771 30.7964 72.9261 31.4482 73.2055 32.0163C73.4849 32.5844 73.8667 33.05 74.3509 33.4318C74.8352 33.8043 75.3939 34.1023 76.0271 34.2885C76.6604 34.4841 77.3216 34.5772 78.0014 34.5772C78.9233 34.5772 79.808 34.4096 80.6368 34.065C81.4656 33.7298 82.136 33.1617 82.6389 32.3795ZM80.3015 27.8444C80.8137 27.8164 81.2421 27.7978 81.5866 27.7978V27.7885H82.7041V28.757C82.7041 29.2133 82.6017 29.6137 82.4154 29.9583C82.2292 30.3028 81.9777 30.5822 81.6518 30.8057C81.3352 31.0292 80.972 31.1968 80.5529 31.3179C80.1339 31.4389 79.7148 31.5041 79.2678 31.5041C78.765 31.5041 78.2807 31.3738 77.8058 31.113C77.3495 30.8523 77.1167 30.4518 77.1167 29.9117C77.1167 29.3995 77.2843 29.0084 77.6196 28.729C77.9455 28.4497 78.3459 28.2355 78.8208 28.0958C79.2958 27.9561 79.7893 27.8723 80.3015 27.8444ZM98.2849 23.7309C97.8659 24.6808 97.6517 25.7331 97.6517 26.8971C97.6517 28.0611 97.8659 29.1134 98.2849 30.0633C98.704 31.0038 99.2813 31.814 100.017 32.4845C100.753 33.155 101.619 33.6765 102.615 34.0397C103.602 34.3935 104.664 34.5798 105.791 34.5798C106.917 34.5798 107.979 34.4028 108.975 34.0397C109.972 33.6765 110.838 33.155 111.574 32.4845C112.3 31.8233 112.887 31.0131 113.306 30.0633C113.725 29.1227 113.939 28.0611 113.939 26.8971C113.939 25.7331 113.725 24.6808 113.306 23.7309C112.887 22.7904 112.309 21.9802 111.574 21.3097C110.838 20.6392 109.972 20.1177 108.975 19.7545C107.979 19.4007 106.908 19.2144 105.791 19.2144C104.673 19.2144 103.612 19.3914 102.615 19.7545C101.619 20.1177 100.753 20.6392 100.017 21.3097C99.2906 21.9709 98.7133 22.7904 98.2849 23.7309ZM103.118 29.5884C102.485 28.8992 102.168 28.0053 102.168 26.8971C102.168 25.7889 102.485 24.8949 103.118 24.2151C103.751 23.5353 104.645 23.1908 105.791 23.1908C106.936 23.1908 107.83 23.5353 108.463 24.2151C109.097 24.8949 109.413 25.7889 109.413 26.8971C109.413 28.0053 109.097 28.9086 108.463 29.5884C107.83 30.2682 106.936 30.6127 105.791 30.6127C104.645 30.6127 103.751 30.2775 103.118 29.5884ZM116.592 19.5654H120.922V21.5489H120.978C121.117 21.2696 121.322 20.9902 121.583 20.7015C121.844 20.4221 122.151 20.1707 122.524 19.9472C122.887 19.7237 123.297 19.5468 123.753 19.4071C124.218 19.2674 124.721 19.1929 125.261 19.1929C126.286 19.1929 127.198 19.4071 127.99 19.8262C128.782 20.2545 129.378 20.9157 129.787 21.819C130.309 20.8784 130.942 20.1986 131.687 19.7982C132.432 19.3978 133.345 19.1929 134.434 19.1929C135.421 19.1929 136.25 19.3605 136.92 19.6958C137.591 20.031 138.122 20.478 138.522 21.0554C138.913 21.6234 139.193 22.3032 139.37 23.0762C139.537 23.8491 139.621 24.6779 139.621 25.5625V34.223H135.095V25.6836C135.095 25.0038 134.946 24.4171 134.658 23.9236C134.369 23.43 133.847 23.1786 133.112 23.1786C132.59 23.1786 132.153 23.2624 131.799 23.43C131.445 23.5976 131.165 23.8398 130.951 24.1378C130.737 24.4358 130.588 24.7896 130.504 25.1994C130.411 25.5998 130.374 26.0282 130.374 26.4658V34.2137H125.848V26.4658C125.848 26.2051 125.839 25.8792 125.82 25.4974C125.802 25.1156 125.727 24.7524 125.606 24.4078C125.485 24.0633 125.289 23.7746 125.019 23.5325C124.749 23.2903 124.349 23.1693 123.827 23.1693C123.241 23.1693 122.775 23.2717 122.412 23.4859C122.049 23.7001 121.769 23.9795 121.583 24.3333C121.388 24.6872 121.266 25.0783 121.211 25.5253C121.145 25.9723 121.117 26.4286 121.117 26.9128V34.2137H116.592V19.5654ZM143.282 13.0967C142.779 13.6089 142.518 14.2235 142.518 14.9498C142.518 15.6762 142.779 16.2908 143.282 16.803C143.794 17.3152 144.409 17.5666 145.135 17.5666C145.862 17.5666 146.476 17.3152 146.988 16.803C147.501 16.2908 147.752 15.6762 147.752 14.9498C147.752 14.2235 147.501 13.6089 146.988 13.0967C146.476 12.5845 145.862 12.3331 145.135 12.3331C144.409 12.3331 143.794 12.5845 143.282 13.0967ZM147.417 19.5687H142.891V34.2263H147.417V19.5687ZM150.694 19.5654H155.006V21.5489H155.071C155.211 21.2696 155.416 20.9902 155.677 20.7015C155.937 20.4221 156.245 20.1707 156.617 19.9472C156.98 19.7237 157.39 19.5468 157.856 19.4071C158.321 19.2674 158.824 19.1929 159.364 19.1929C160.51 19.1929 161.441 19.3699 162.139 19.7237C162.847 20.0776 163.387 20.5618 163.778 21.1858C164.169 21.8097 164.439 22.5454 164.579 23.3835C164.719 24.2309 164.793 25.1435 164.793 26.1213V34.2044H160.268V27.0246C160.268 26.6055 160.258 26.1678 160.23 25.7115C160.202 25.2552 160.109 24.8455 159.96 24.4637C159.811 24.0819 159.578 23.7746 159.271 23.5231C158.964 23.281 158.507 23.16 157.93 23.16C157.343 23.16 156.869 23.2624 156.515 23.4766C156.151 23.6908 155.872 23.9701 155.686 24.324C155.49 24.6779 155.369 25.069 155.313 25.516C155.248 25.963 155.22 26.4193 155.22 26.9035V34.2044H150.694V19.5654ZM168.07 23.7309C167.651 24.6808 167.437 25.7331 167.437 26.8971C167.437 28.0611 167.651 29.1134 168.07 30.0633C168.489 31.0038 169.067 31.814 169.802 32.4845C170.538 33.155 171.404 33.6765 172.401 34.0397C173.388 34.3935 174.449 34.5798 175.576 34.5798C176.694 34.5798 177.755 34.4028 178.752 34.0397C179.748 33.6765 180.614 33.155 181.35 32.4845C182.076 31.8233 182.653 31.0131 183.082 30.0633C183.501 29.1227 183.715 28.0611 183.715 26.8971C183.715 25.7331 183.501 24.6808 183.082 23.7309C182.663 22.7904 182.085 21.9802 181.35 21.3097C180.614 20.6392 179.748 20.1177 178.752 19.7545C177.765 19.4007 176.703 19.2144 175.576 19.2144C174.459 19.2144 173.397 19.3914 172.401 19.7545C171.404 20.1177 170.538 20.6392 169.802 21.3097C169.067 21.9709 168.489 22.7904 168.07 23.7309ZM172.903 29.5884C172.27 28.8992 171.954 28.0053 171.954 26.8971C171.954 25.7889 172.27 24.8949 172.903 24.2151C173.537 23.5353 174.431 23.1908 175.576 23.1908C176.722 23.1908 177.616 23.5353 178.249 24.2151C178.882 24.8949 179.199 25.7889 179.199 26.8971C179.199 28.0053 178.882 28.9086 178.249 29.5884C177.616 30.2682 176.722 30.6127 175.576 30.6127C174.431 30.6127 173.537 30.2775 172.903 29.5884Z" fill="#2D2E2F"/>
</g>
<g clip-path="url(#clip1_413_3188)">
<path d="M41.8867 10.072L45.035 4.02088C43.6809 4.08074 40.3056 5.60551 39.9312 7.61805C39.9312 7.61805 36.0655 -2.86364 15.8749 1.58042C15.8749 1.58042 17.49 2.91962 18.7647 5.16783C18.7647 5.16783 15.3113 2.40713 12.7884 2.72136C12.7884 2.72136 7.71617 3.73137 2.973 10.2478L7.29632 10.9474C7.29632 10.9474 4.02451 15.6944 0 17.5274C8.73743 16.7344 11.9185 10.5359 11.9185 10.5359C11.0447 9.45478 9.95159 8.80762 9.95159 8.80762C11.0447 7.40109 12.9019 5.99829 12.9019 5.99829C16.1813 5.78132 20.6597 7.50957 20.6597 7.50957C20.3306 4.70024 19.4228 2.64654 19.4228 2.64654C36.319 1.24749 39.3336 11.5496 39.3336 11.5496C37.8055 17.0598 39.0499 22.1099 39.0499 22.1099C39.0499 22.1099 41.7051 29.9767 37.223 31.6451C37.223 31.6451 36.9582 23.1386 30.8193 18.7506C28.3645 16.9962 29.5068 11.1868 29.5068 11.1868C29.5068 11.1868 15.9543 16.3752 20.2625 27.8295C24.4156 38.8723 21.2274 43.5873 20.584 45.5174C20.6634 45.3902 21.7339 43.5783 22.3996 42.5346C25.1192 38.2589 23.035 30.4818 23.035 30.4818C23.035 30.4818 21.1892 21.2682 26.8137 17.3404C26.8137 17.3404 26.3144 20.535 30.5923 23.0638C30.5923 23.0638 35.2599 24.706 36.3265 32.4494C36.3265 32.4494 40.4532 34.8398 43.0782 28.8807C43.082 28.8844 40.4494 17.7369 41.8867 10.072Z" fill="#CA5B41"/>
</g>
<defs>
<clipPath id="clip0_413_3188">
<rect width="128.671" height="23.1608" fill="white" transform="translate(55.3286 11.4194)"/>
</clipPath>
<clipPath id="clip1_413_3188">
<rect width="45.035" height="45.035" fill="white" transform="translate(0 0.482422)"/>
</clipPath>
</defs>
</svg>
